<?xml version="1.0" encoding="utf-8"?>
<!-- Generator: Adobe Illustrator 23.0.0, SVG Export Plug-In . SVG Version: 6.00 Build 0)  -->
<svg version="1.1" xmlns="http://www.w3.org/2000/svg" xmlns:xlink="http://www.w3.org/1999/xlink" x="0px" y="0px"
	 viewBox="0 0 24 24" style="enable-background:new 0 0 24 24;" xml:space="preserve">
<style type="text/css">
	.st0{fill:none;stroke:#000000;stroke-width:2;stroke-linecap:round;stroke-linejoin:round;}
	.st1{fill:none;stroke:#000000;stroke-width:2;stroke-linejoin:round;}
</style>
<title></title>
<g>
	<path class="st0" d="M16.8,10v10.1c0,1.3-1,2.3-2.3,2.3h-9c-1.3,0-2.3-1-2.3-2.3V7.9c0-1.3,1-2.3,2.3-2.3h6.7L16.8,10z"/>
	<path class="st1" d="M8.2,3.9c0-1.3,1-2.3,2.3-2.3h8c1.3,0,2.3,1,2.3,2.3v11.3c0,1.3-1,2.3-2.3,2.3"/>
	<path class="st0" d="M16.8,11h-4.3c-1.3,0-1.3,0-1.3-1.3V5.5"/>
</g>
</svg>
