<?xml version="1.0" encoding="utf-8"?>
<!-- Generator: Adobe Illustrator 23.0.0, SVG Export Plug-In . SVG Version: 6.00 Build 0)  -->
<svg version="1.1" xmlns="http://www.w3.org/2000/svg" xmlns:xlink="http://www.w3.org/1999/xlink" x="0px" y="0px"
	 viewBox="0 0 24 24" style="enable-background:new 0 0 24 24;" xml:space="preserve">
<style type="text/css">
	.st0{fill:none;stroke:#000000;stroke-width:2;stroke-linecap:round;stroke-linejoin:round;}
</style>
<path class="st0" d="M22,9.8l-2.4-0.5c-0.1-0.3-0.2-0.5-0.3-0.8l1.4-2C21,6,20.9,5.3,20.5,4.8l-1.3-1.3c-0.5-0.5-1.2-0.5-1.7-0.2
	l-2,1.4c-0.2-0.1-0.5-0.2-0.8-0.3l-0.5-2.4C14.1,1.4,13.6,1,12.9,1h-1.8C10.4,1,9.9,1.4,9.8,2L9.3,4.4C9,4.5,8.8,4.6,8.5,4.7l-2-1.4
	C6,3,5.3,3.1,4.9,3.5L3.6,4.8C3.1,5.3,3.1,6,3.4,6.5l1.4,2C4.6,8.8,4.6,9,4.5,9.3L2.1,9.7C1.4,9.9,1,10.5,1,11.1v1.8
	c0,0.6,0.5,1.2,1.1,1.3l2.4,0.5c0.1,0.3,0.2,0.5,0.3,0.8l-1.4,2C3,18,3.1,18.7,3.5,19.2l1.3,1.3C5.3,20.9,6,21,6.5,20.6l2-1.4
	c0.2,0.1,0.5,0.2,0.8,0.3L9.7,22c0.1,0.6,0.7,1.1,1.3,1.1h1.9c0.6,0,1.2-0.5,1.3-1.1l0.5-2.4c0.3-0.1,0.5-0.2,0.8-0.3l2,1.4
	c0.5,0.4,1.3,0.3,1.7-0.2l1.3-1.3c0.5-0.5,0.5-1.2,0.2-1.7l-1.4-2c0.1-0.2,0.2-0.5,0.3-0.8l2.4-0.5c0.6-0.1,1.1-0.7,1.1-1.3v-1.9
	C23.1,10.5,22.6,9.9,22,9.8z"/>
<path class="st0" d="M12,8.3C10,8.3,8.3,10,8.3,12s1.7,3.7,3.7,3.7s3.7-1.7,3.7-3.7S14.1,8.3,12,8.3z"/>
</svg>
